<svg width="121" height="35" viewBox="0 0 121 35" fill="none" xmlns="http://www.w3.org/2000/svg">
<path d="M9.84606 27.4091C8.07333 27.4091 6.51793 26.9872 5.17987 26.1435C3.85032 25.2997 2.81055 24.1193 2.06055 22.6023C1.31907 21.0852 0.948331 19.3125 0.948331 17.2841C0.948331 15.2386 1.31907 13.4531 2.06055 11.9276C2.81055 10.402 3.85032 9.21733 5.17987 8.37358C6.51793 7.52983 8.07333 7.10795 9.84606 7.10795C11.6188 7.10795 13.1699 7.52983 14.4995 8.37358C15.8375 9.21733 16.8773 10.402 17.6188 11.9276C18.3688 13.4531 18.7438 15.2386 18.7438 17.2841C18.7438 19.3125 18.3688 21.0852 17.6188 22.6023C16.8773 24.1193 15.8375 25.2997 14.4995 26.1435C13.1699 26.9872 11.6188 27.4091 9.84606 27.4091ZM9.84606 24.6989C11.1926 24.6989 12.3006 24.3537 13.1699 23.6634C14.0392 22.973 14.6827 22.0653 15.1003 20.9403C15.5179 19.8153 15.7267 18.5966 15.7267 17.2841C15.7267 15.9716 15.5179 14.7486 15.1003 13.6151C14.6827 12.4815 14.0392 11.5653 13.1699 10.8665C12.3006 10.1676 11.1926 9.81818 9.84606 9.81818C8.49947 9.81818 7.39151 10.1676 6.5222 10.8665C5.65288 11.5653 5.00941 12.4815 4.5918 13.6151C4.17418 14.7486 3.96538 15.9716 3.96538 17.2841C3.96538 18.5966 4.17418 19.8153 4.5918 20.9403C5.00941 22.0653 5.65288 22.973 6.5222 23.6634C7.39151 24.3537 8.49947 24.6989 9.84606 24.6989ZM23.3493 27V7.36364H26.264V10.3295H26.4686C26.8265 9.35795 27.4743 8.5696 28.4118 7.96449C29.3493 7.35937 30.4061 7.05682 31.5822 7.05682C31.8038 7.05682 32.0808 7.06108 32.4132 7.0696C32.7456 7.07812 32.997 7.09091 33.1674 7.10795V10.1761C33.0652 10.1506 32.8308 10.1122 32.4643 10.0611C32.1064 10.0014 31.7271 9.97159 31.3265 9.97159C30.372 9.97159 29.5197 10.1719 28.7697 10.5724C28.0282 10.9645 27.4402 11.5099 27.0055 12.2088C26.5794 12.8991 26.3663 13.6875 26.3663 14.5739V27H23.3493ZM36.7438 27V7.36364H39.7608V27H36.7438ZM38.2779 4.09091C37.6898 4.09091 37.1827 3.89062 36.7566 3.49006C36.339 3.08949 36.1301 2.60795 36.1301 2.04545C36.1301 1.48295 36.339 1.00142 36.7566 0.600851C37.1827 0.200284 37.6898 0 38.2779 0C38.8659 0 39.3688 0.200284 39.7864 0.600851C40.2125 1.00142 40.4256 1.48295 40.4256 2.04545C40.4256 2.60795 40.2125 3.08949 39.7864 3.49006C39.3688 3.89062 38.8659 4.09091 38.2779 4.09091ZM53.2129 34.7727C51.7555 34.7727 50.5027 34.5852 49.4544 34.2102C48.4061 33.8438 47.5325 33.358 46.8336 32.7528C46.1433 32.1563 45.5936 31.517 45.1845 30.8352L47.5879 29.1477C47.8606 29.5057 48.2058 29.9148 48.6234 30.375C49.041 30.8438 49.612 31.2486 50.3365 31.5895C51.0694 31.9389 52.0282 32.1136 53.2129 32.1136C54.7981 32.1136 56.1064 31.7301 57.1376 30.9631C58.1689 30.196 58.6845 28.9943 58.6845 27.358V23.3693H58.4288C58.2072 23.7273 57.8919 24.1705 57.4828 24.6989C57.0822 25.2188 56.5027 25.6832 55.7441 26.0923C54.9941 26.4929 53.9799 26.6932 52.7015 26.6932C51.1163 26.6932 49.693 26.3182 48.4316 25.5682C47.1788 24.8182 46.1859 23.7273 45.4529 22.2955C44.7285 20.8636 44.3663 19.125 44.3663 17.0795C44.3663 15.0682 44.72 13.3168 45.4274 11.8253C46.1348 10.3253 47.1191 9.16619 48.3805 8.34801C49.6419 7.52131 51.0993 7.10795 52.7527 7.10795C54.0311 7.10795 55.0453 7.32102 55.7953 7.74716C56.5538 8.16477 57.1333 8.64205 57.5339 9.17898C57.943 9.70739 58.2583 10.142 58.4799 10.483H58.7868V7.36364H61.7015V27.5625C61.7015 29.25 61.318 30.6222 60.551 31.679C59.7924 32.7443 58.7697 33.5241 57.4828 34.0185C56.2044 34.5213 54.7811 34.7727 53.2129 34.7727ZM53.1106 23.983C54.3208 23.983 55.3436 23.706 56.1788 23.152C57.014 22.598 57.649 21.8011 58.0836 20.7614C58.5183 19.7216 58.7356 18.4773 58.7356 17.0284C58.7356 15.6136 58.5226 14.3651 58.0964 13.2827C57.6703 12.2003 57.0396 11.3523 56.2044 10.7386C55.3691 10.125 54.3379 9.81818 53.1106 9.81818C51.8322 9.81818 50.7669 10.142 49.9146 10.7898C49.0708 11.4375 48.4359 12.3068 48.0098 13.3977C47.5922 14.4886 47.3833 15.6989 47.3833 17.0284C47.3833 18.392 47.5964 19.598 48.0226 20.6463C48.4572 21.6861 49.0964 22.5043 49.9402 23.1009C50.7924 23.6889 51.8493 23.983 53.1106 23.983ZM67.2243 27V7.36364H70.2413V27H67.2243ZM68.7583 4.09091C68.1703 4.09091 67.6632 3.89062 67.237 3.49006C66.8194 3.08949 66.6106 2.60795 66.6106 2.04545C66.6106 1.48295 66.8194 1.00142 67.237 0.600851C67.6632 0.200284 68.1703 0 68.7583 0C69.3464 0 69.8493 0.200284 70.2669 0.600851C70.693 1.00142 70.9061 1.48295 70.9061 2.04545C70.9061 2.60795 70.693 3.08949 70.2669 3.49006C69.8493 3.89062 69.3464 4.09091 68.7583 4.09091ZM78.7843 15.1875V27H75.7672V7.36364H78.682V10.4318H78.9377C79.3979 9.43466 80.0968 8.63352 81.0343 8.02841C81.9718 7.41477 83.182 7.10795 84.665 7.10795C85.9945 7.10795 87.1578 7.38068 88.155 7.92614C89.1522 8.46307 89.9277 9.28125 90.4817 10.3807C91.0357 11.4716 91.3127 12.8523 91.3127 14.5227V27H88.2956V14.7273C88.2956 13.1847 87.8951 11.983 87.0939 11.1222C86.2928 10.2528 85.1934 9.81818 83.7956 9.81818C82.8326 9.81818 81.9718 10.027 81.2132 10.4446C80.4632 10.8622 79.8709 11.4716 79.4363 12.2727C79.0016 13.0739 78.7843 14.0455 78.7843 15.1875ZM102.604 27.4602C101.36 27.4602 100.231 27.2259 99.2164 26.7571C98.2022 26.2798 97.3968 25.5938 96.8002 24.6989C96.2037 23.7955 95.9054 22.7045 95.9054 21.4261C95.9054 20.3011 96.127 19.3892 96.5701 18.6903C97.0133 17.983 97.6056 17.429 98.3471 17.0284C99.0886 16.6278 99.9068 16.3295 100.802 16.1335C101.705 15.929 102.613 15.767 103.525 15.6477C104.718 15.4943 105.685 15.3793 106.427 15.3026C107.177 15.2173 107.722 15.0767 108.063 14.8807C108.412 14.6847 108.587 14.3437 108.587 13.858V13.7557C108.587 12.4943 108.242 11.5142 107.552 10.8153C106.87 10.1165 105.834 9.76705 104.445 9.76705C103.005 9.76705 101.876 10.0824 101.057 10.7131C100.239 11.3437 99.6639 12.017 99.3315 12.733L96.4679 11.7102C96.9792 10.517 97.661 9.58807 98.5133 8.9233C99.3741 8.25 100.312 7.78125 101.326 7.51705C102.349 7.24432 103.354 7.10795 104.343 7.10795C104.974 7.10795 105.698 7.18466 106.516 7.33807C107.343 7.48295 108.14 7.78551 108.907 8.24574C109.682 8.70597 110.326 9.40057 110.837 10.3295C111.349 11.2585 111.604 12.5028 111.604 14.0625V27H108.587V24.3409H108.434C108.229 24.767 107.888 25.223 107.411 25.7088C106.934 26.1946 106.299 26.608 105.506 26.9489C104.714 27.2898 103.746 27.4602 102.604 27.4602ZM103.064 24.75C104.258 24.75 105.263 24.5156 106.081 24.0469C106.908 23.5781 107.53 22.973 107.948 22.2315C108.374 21.4901 108.587 20.7102 108.587 19.892V17.1307C108.459 17.2841 108.178 17.4247 107.743 17.5526C107.317 17.6719 106.823 17.7784 106.26 17.8722C105.706 17.9574 105.165 18.0341 104.637 18.1023C104.117 18.1619 103.695 18.2131 103.371 18.2557C102.587 18.358 101.854 18.5241 101.172 18.7543C100.499 18.9759 99.9537 19.3125 99.536 19.7642C99.127 20.2074 98.9224 20.8125 98.9224 21.5795C98.9224 22.6278 99.3102 23.4205 100.086 23.9574C100.87 24.4858 101.863 24.75 103.064 24.75ZM120.128 0.818181V27H117.111V0.818181H120.128Z" fill="#FF0A54"/>
</svg>
