<svg width="18" height="21" viewBox="0 0 18 21" fill="none" xmlns="http://www.w3.org/2000/svg">
<path d="M8.9984 20.4091C7.22568 20.4091 5.67028 19.9872 4.33221 19.1435C3.00266 18.2997 1.96289 17.1193 1.21289 15.6023C0.471413 14.0852 0.100675 12.3125 0.100675 10.2841C0.100675 8.23864 0.471413 6.45312 1.21289 4.92756C1.96289 3.40199 3.00266 2.21733 4.33221 1.37358C5.67028 0.52983 7.22568 0.107955 8.9984 0.107955C10.7711 0.107955 12.3223 0.52983 13.6518 1.37358C14.9899 2.21733 16.0297 3.40199 16.7711 4.92756C17.5211 6.45312 17.8961 8.23864 17.8961 10.2841C17.8961 12.3125 17.5211 14.0852 16.7711 15.6023C16.0297 17.1193 14.9899 18.2997 13.6518 19.1435C12.3223 19.9872 10.7711 20.4091 8.9984 20.4091ZM8.9984 17.6989C10.345 17.6989 11.4529 17.3537 12.3223 16.6634C13.1916 15.973 13.8351 15.0653 14.2527 13.9403C14.6703 12.8153 14.8791 11.5966 14.8791 10.2841C14.8791 8.97159 14.6703 7.74858 14.2527 6.61506C13.8351 5.48153 13.1916 4.56534 12.3223 3.86648C11.4529 3.16761 10.345 2.81818 8.9984 2.81818C7.65181 2.81818 6.54386 3.16761 5.67454 3.86648C4.80522 4.56534 4.16175 5.48153 3.74414 6.61506C3.32653 7.74858 3.11772 8.97159 3.11772 10.2841C3.11772 11.5966 3.32653 12.8153 3.74414 13.9403C4.16175 15.0653 4.80522 15.973 5.67454 16.6634C6.54386 17.3537 7.65181 17.6989 8.9984 17.6989Z" fill="#FF0A54"/>
</svg>
